# xmcd
#
# Track frame offsets:
#	150
#	11238
#	25375
#	37108
#	48860
#	60400
#	73913
#	84230
#	97673
#	110603
#	122975
#
# Disc length: 1779 seconds
#
# Revision: 1
# Processed by: cddbd v1.5.2PL0 Copyright (c) Steve Scherf et al.
# Submitted via: EasyCDDAExtractor 5.0.7
#
DISCID=8e06f10b
DTITLE=VICENTE FERNANDEZ - LO SIENTO POR TI
DYEAR=1900
DGENRE=Country
TTITLE0=LO SIENTO POR TI
TTITLE1=ME CASO EL SABADO
TTITLE2=TU Y YO
TTITLE3=PIERDETE CONMIGO
TTITLE4=ACTOR
TTITLE5=SI PUDIERAS AMARME
TTITLE6=PERDON
TTITLE7=CUANDO UN AMOR TERMINA
TTITLE8=PIENSALO BIEN
TTITLE9=MI ADORACION
TTITLE10=DOS RAMAS
EXTD=
EXTT0=
EXTT1=
EXTT2=
EXTT3=
EXTT4=
EXTT5=
EXTT6=
EXTT7=
EXTT8=
EXTT9=
EXTT10=
PLAYORDER=
